<?xml version="1.0" encoding="utf-8"?>
<!-- Generator: Adobe Illustrator 22.0.1, SVG Export Plug-In . SVG Version: 6.00 Build 0)  -->
<svg version="1.1" id="Слой_3" xmlns="http://www.w3.org/2000/svg" xmlns:xlink="http://www.w3.org/1999/xlink" x="0px" y="0px"
	 width="32px" height="13px" viewBox="0 0 32 13" style="enable-background:new 0 0 32 13;" xml:space="preserve">
<path d="M4.7,2.6C4.5,2.8,4.3,3,4.2,3.2C4.1,3.5,4,4,4,4.6v0.4v5.2H3.4L1.6,4.7V8l0,0.3l0,0.9C1.7,9.5,1.8,9.8,2,10l0,0
	C1.7,9.8,1.5,9.2,1.5,8.3l0-0.6V4.5L1.3,3.8v3.4c0,1.1,0,1.8,0.1,2.1s0.3,0.6,0.6,0.7l0.3,0.6h-2l-0.1-0.2h1.9L2,10.2H0.2
	C0.5,10,0.7,9.8,0.8,9.5C0.9,9.2,1,8.7,1,8V3.2L0.5,2.6h1.9L1.9,3.1l1.8,5.6V8L2.1,3.2l0.5-0.6l0.1,0.1L2.2,3.3l1.4,4.4V4.9V4.6
	c0-0.7,0-1.1-0.1-1.4C3.5,3,3.3,2.8,3,2.6H4.7z M4.9,3L4.8,3.2C4.6,3.3,4.5,3.4,4.4,3.6c-0.1,0.2-0.1,0.5-0.1,1v6.1H3.5l0-0.2h0.8
	V4.6c0-0.6,0-0.9,0.1-1.2C4.4,3.2,4.6,3.1,4.9,3z"/>
<path d="M7.2,2.5c0.6,0,1.1,0.4,1.5,1.1s0.5,1.7,0.5,2.9c0,1.2-0.2,2.1-0.5,2.8s-0.8,1-1.4,1c-0.5,0-0.9-0.2-1.3-0.7
	C5.4,8.8,5.1,7.8,5.1,6.4c0-1.2,0.2-2.1,0.6-2.8C6,2.8,6.5,2.5,7.2,2.5z M7.2,3C6.3,3,5.9,4.2,5.9,6.5c0,2.2,0.4,3.3,1.3,3.3
	c0.4,0,0.7-0.3,0.9-0.9c0.2-0.6,0.3-1.4,0.3-2.5c0-1.3-0.1-2.1-0.3-2.6C7.9,3.3,7.6,3,7.2,3z M8.4,2.8C8.7,3.1,9,3.5,9.2,4.2
	c0.2,0.7,0.3,1.4,0.3,2.3c0,1.3-0.2,2.3-0.6,3.1S8,10.7,7.3,10.7c-0.4,0-0.8-0.2-1.2-0.7v0c0.3,0.4,0.7,0.5,1.2,0.5
	c0.6,0,1.1-0.4,1.5-1.1c0.4-0.7,0.6-1.7,0.6-2.9c0-0.9-0.1-1.6-0.3-2.3C9,3.7,8.7,3.2,8.4,2.8L8.4,2.8z M8,3.9L8,3.9
	C7.7,3.6,7.5,3.5,7.3,3.5c-0.7,0-1,1-1,3.1c0,1.5,0.2,2.5,0.6,3l0,0.1C6.6,9.3,6.4,9,6.3,8.5C6.2,8,6.2,7.4,6.2,6.7
	c0-2.2,0.4-3.3,1.1-3.3C7.6,3.4,7.8,3.5,8,3.9z"/>
<path d="M10.1,2.6h1.7c0.7,0,1.2,0.2,1.5,0.5c0.4,0.4,0.6,0.9,0.6,1.6c0,0.4-0.1,0.8-0.2,1.1c-0.1,0.3-0.4,0.5-0.6,0.7
	c-0.3,0.1-0.7,0.2-1.3,0.2h-0.5v2.9l0.5,0.7H10l0.5-0.7V7.1c0,0-0.1,0-0.1,0c-0.2,0-0.4,0.1-0.5,0.2l0-0.1c0.2-0.2,0.3-0.2,0.5-0.2
	h0.1l0,0V6.7c-0.1,0-0.1,0-0.1,0c-0.3,0-0.5,0.1-0.6,0.3l0-0.1c0.2-0.4,0.4-0.7,0.7-0.7h0.1V3.3L10.1,2.6z M13.7,3.2
	c0.2,0.1,0.3,0.3,0.4,0.6s0.1,0.6,0.1,1c0,0.9-0.2,1.5-0.6,1.8c-0.3,0.3-0.9,0.4-1.6,0.4c-0.1,0-0.2,0-0.3,0v2.4l0.6,1.1h-1.9
	l-0.1-0.2H12l-0.5-0.9V6.9c0.2,0,0.4,0,0.7,0c0.6,0,1.1-0.2,1.4-0.5s0.5-0.9,0.5-1.7c0-0.3,0-0.6-0.1-0.8C14,3.8,13.9,3.5,13.7,3.2z
	 M11.3,3.2v3h0l0.1,0c0,0,0,0,0,0V3.5h0.4c0.3,0,0.5,0,0.7,0.1c0.1,0.1,0.2,0.3,0.3,0.6c-0.1-0.2-0.2-0.3-0.3-0.4
	c-0.1-0.1-0.3-0.1-0.6-0.1h-0.4v2.5c0.5,0,0.9-0.1,1.1-0.3c0.2-0.2,0.3-0.6,0.3-1.1c0-0.5-0.1-0.9-0.3-1.2s-0.5-0.4-1-0.4
	C11.6,3.2,11.5,3.2,11.3,3.2z"/>
<path d="M14.6,3.3c0.6-0.5,1.2-0.8,1.9-0.8c0.5,0,1,0.2,1.3,0.5c0.3,0.4,0.5,0.8,0.5,1.4c0,0.5-0.1,0.9-0.3,1.2
	c-0.2,0.4-0.5,0.6-0.9,0.8c0.2,0.8,0.4,1.5,0.7,2.2c0.3,0.7,0.6,1.3,0.9,1.6l-0.1,0c-0.4,0.2-0.7,0.5-1.1,0.9l-0.1,0.1l0-0.2
	c-0.2-1.5-0.4-2.8-0.7-3.9l0-0.1c-0.2,0.1-0.4,0.2-0.7,0.3l0,0v2.2l0.7,1.1h-1.9l-0.1-0.2h1.8l-0.5-0.9V7.2l0.1,0
	c0.3,0,0.5-0.1,0.7-0.3c0,0,0-0.1,0-0.1l0-0.2c0,0,0,0,0-0.1c-0.2,0.1-0.4,0.1-0.9,0.2l0,0v2.6l0.4,0.7h-1.7L15,9.5v-2l0,0
	c-0.1,0.1-0.3,0.1-0.4,0.2l0,0l0-0.1c0.1-0.1,0.2-0.1,0.3-0.1L15,7.3l0,0V7c-0.1,0-0.3,0.1-0.6,0.2l0,0c0-0.1,0-0.2,0.1-0.4
	c0,0,0-0.1,0.1-0.3c0,0,0,0,0-0.1c0.1,0,0.2,0,0.3,0c0.1,0,0.1,0,0.2,0V3.6C14.9,3.5,14.8,3.4,14.6,3.3L14.6,3.3z M15.7,3.1v3.2
	c0.1,0,0.1,0,0.2,0V3.4c0.1-0.1,0.3-0.1,0.5-0.1c0.5,0,0.8,0.3,1,0.8c-0.2-0.2-0.3-0.4-0.5-0.5s-0.3-0.1-0.5-0.1
	c-0.2,0-0.3,0-0.4,0.1v2.8l0,0c0.5-0.1,0.9-0.4,1.1-0.7s0.4-0.7,0.4-1.2c0-0.4-0.1-0.8-0.3-1.1C17,3,16.7,2.9,16.4,2.9
	C16.1,2.9,15.9,3,15.7,3.1z M17.6,6.7c0.2,0.8,0.4,1.6,0.8,2.4c0.3,0.5,0.6,0.9,1,1.3c-0.6,0.2-1.1,0.6-1.6,1.1l0,0l-0.1-0.1
	c0.5-0.5,1-0.9,1.5-1.1c-0.7-0.8-1.3-2-1.7-3.6l0-0.1c0.8-0.5,1.2-1.2,1.2-2.1c0-0.4-0.1-0.8-0.3-1.3c0.3,0.4,0.4,0.8,0.4,1.4
	C18.7,5.5,18.3,6.2,17.6,6.7z"/>
<path d="M19.3,2.6h1.8l-0.5,0.8v6.2l0.5,0.6h-1.8l0.5-0.7V3.3L19.3,2.6z M21.3,2.9l-0.4,0.6v6l0.6,1.1h-2l-0.1-0.2h1.8l-0.5-0.9V3.4
	l0.4-0.7L21.3,2.9z"/>
<path d="M26.7,2.6l-0.5,0.8v6.1l0.5,0.7h-1.7l0.5-0.7v-4l-1.2,5.2h-0.4l0-0.2h0.3L25.5,5V4.1l-1.4,6.1h-0.3l-1-4.8v3.1
	c0,0.4,0,0.7,0.1,0.9c0,0.2,0.1,0.4,0.2,0.6l0.3,0.7h-2l-0.1-0.2h1.8l-0.1-0.3h-1.7l0.1-0.1C21.8,9.9,22,9.6,22,9.4s0.1-0.6,0.1-1.2
	V3.3l-0.5-0.7h1.9l-0.5,0.8l1.1,5l0.1-0.5l-1-4.4l0.5-0.6l0.1,0.1l-0.5,0.5l0.9,4.1l1-4.2l-0.5-0.8H26.7z M22.5,4v4.3
	c0,0.7,0,1.1,0.1,1.3s0.2,0.4,0.5,0.5l0-0.1c-0.2-0.3-0.4-0.7-0.4-1.2V8.4V4.9L22.5,4z M26.9,3l-0.4,0.5v6l0.7,1.2h-2l-0.1-0.2h1.8
	l-0.5-0.9V3.4l0.4-0.5L26.9,3z"/>
<path d="M31.4,2.6l-0.1,0.1c-0.3,0.5-0.5,1.1-0.6,1.7c0-0.1,0-0.2-0.1-0.2c-0.1-0.5-0.3-0.8-0.4-0.9s-0.4-0.2-0.8-0.2
	c-0.2,0-0.4,0-0.7,0v2.7h0.2V3.4c0.2,0,0.4,0,0.5,0c0.3,0,0.6,0.1,0.7,0.2c0.2,0.1,0.3,0.3,0.4,0.6c0,0-0.1-0.1-0.1-0.1
	c-0.2-0.3-0.3-0.4-0.4-0.5s-0.3-0.1-0.5-0.1c-0.1,0-0.2,0-0.4,0l-0.1,0v2.3h0.7l0.5-1v2.6l-0.5-1h-1v3.3h0.2v-3h0.8l0.1,0.2H29v2.9
	c0.5,0,0.9-0.1,1.1-0.2c0.2-0.1,0.4-0.3,0.5-0.7l0.2-0.5c0,0,0-0.1,0-0.1c0.1,0.4,0.1,0.8,0.2,1c0.1,0.3,0.3,0.6,0.5,0.9h-4.2
	l0.6-0.7V6.8c-0.2,0-0.4,0.1-0.6,0.3l-0.1-0.1c0.2-0.2,0.4-0.3,0.6-0.3V6.3c0,0-0.1,0-0.1,0c-0.3,0-0.5,0.1-0.7,0.4
	c0.1-0.6,0.4-0.9,0.8-0.9V3.3l-0.6-0.7H31.4z M32,10.1l-0.2,0.5h-4.1l-0.1-0.2h4.1l0.1-0.4c-0.4-0.5-0.6-1.1-0.8-1.7l0.1,0.1
	C31.4,9,31.6,9.5,32,10.1L32,10.1z M30.4,5v2.6l-0.1-0.1L30.4,5L30.4,5z M31.5,3L31.5,3c-0.3,0.7-0.5,1.2-0.6,1.7l-0.1-0.1
	c0.2-0.6,0.4-1.2,0.6-1.7L31.5,3z"/>
</svg>
