<?xml version="1.0" encoding="utf-8"?>
<!-- Generator: Adobe Illustrator 22.0.1, SVG Export Plug-In . SVG Version: 6.00 Build 0)  -->
<svg version="1.1" id="Слой_3" xmlns="http://www.w3.org/2000/svg" xmlns:xlink="http://www.w3.org/1999/xlink" x="0px" y="0px"
	 width="32px" height="13px" viewBox="0 0 32 13" style="enable-background:new 0 0 32 13;" xml:space="preserve">
<path d="M0.7,2.6h2.4c1,0,1.8,0.2,2.2,0.5C5.8,3.4,6.1,4,6.1,4.7c0,0.4-0.1,0.8-0.3,1.1C5.6,6.1,5.3,6.3,4.9,6.4
	c-0.4,0.1-1,0.2-1.8,0.2H2.4v2.9l0.7,0.7H0.6l0.7-0.7V7.1c0,0-0.1,0-0.1,0C1,7.1,0.7,7.2,0.5,7.3l0-0.1C0.7,7,0.9,6.9,1.1,6.9h0.2
	l0,0V6.7c-0.1,0-0.1,0-0.2,0c-0.4,0-0.7,0.1-0.9,0.3L0.2,6.9c0.2-0.4,0.6-0.7,1.1-0.7h0.1V3.3L0.7,2.6z M5.8,3.2
	C6,3.3,6.2,3.5,6.3,3.8s0.2,0.6,0.2,1c0,0.9-0.3,1.5-0.9,1.8C5.2,7,4.4,7.1,3.3,7.1c-0.2,0-0.3,0-0.5,0v2.4l0.8,1.1H1l-0.1-0.2h2.5
	L2.7,9.6V6.9c0.3,0,0.6,0,1,0c0.9,0,1.6-0.2,2.1-0.5s0.7-0.9,0.7-1.7c0-0.3,0-0.6-0.1-0.8C6.2,3.8,6,3.5,5.8,3.2z M2.4,3.2v3h0.1
	l0.1,0c0,0,0,0,0.1,0V3.5h0.6c0.5,0,0.8,0,1,0.1c0.2,0.1,0.3,0.3,0.5,0.6C4.6,4,4.4,3.8,4.2,3.8C4,3.7,3.8,3.6,3.4,3.6H2.8v2.5
	c0.7,0,1.2-0.1,1.6-0.3c0.3-0.2,0.5-0.6,0.5-1.1c0-0.5-0.1-0.9-0.4-1.2S3.7,3.2,3,3.2C2.9,3.2,2.7,3.2,2.4,3.2z"/>
<path d="M7.1,3.3C8,2.7,8.9,2.5,9.9,2.5c0.8,0,1.4,0.2,1.9,0.5c0.5,0.4,0.7,0.8,0.7,1.4c0,0.5-0.2,0.9-0.5,1.2
	c-0.3,0.4-0.8,0.6-1.3,0.8c0.2,0.8,0.6,1.5,1,2.2c0.4,0.7,0.9,1.3,1.3,1.6l-0.1,0c-0.5,0.2-1.1,0.5-1.6,0.9l-0.1,0.1l0-0.2
	c-0.2-1.5-0.6-2.8-1-3.9l0-0.1c-0.2,0.1-0.6,0.2-1,0.3l0,0v2.2l0.9,1.1H7.4l-0.1-0.2h2.6L9,9.6V7.2l0.1,0c0.4,0,0.8-0.1,1-0.3
	c0,0,0-0.1,0-0.1l-0.1-0.2c0,0,0,0,0-0.1C9.8,6.7,9.4,6.7,8.8,6.8l-0.1,0v2.6l0.6,0.7H7l0.7-0.7v-2l0,0C7.4,7.5,7.2,7.6,7.1,7.7l0,0
	l0-0.1c0.2-0.1,0.3-0.1,0.4-0.1l0.3-0.1l0,0V7C7.5,7,7.2,7.1,6.9,7.2l-0.1,0c0-0.1,0-0.2,0.1-0.4c0,0,0-0.1,0.1-0.3c0,0,0,0,0-0.1
	c0.2,0,0.3,0,0.4,0c0.1,0,0.2,0,0.3,0V3.6C7.5,3.5,7.3,3.4,7.1,3.3L7.1,3.3z M8.7,3.1v3.2c0.1,0,0.2,0,0.3,0V3.4
	c0.2-0.1,0.4-0.1,0.7-0.1c0.7,0,1.2,0.3,1.4,0.8c-0.3-0.2-0.5-0.4-0.7-0.5S10,3.4,9.8,3.4c-0.2,0-0.4,0-0.6,0.1v2.8l0.1,0
	c0.7-0.1,1.2-0.4,1.6-0.7s0.5-0.7,0.5-1.2c0-0.4-0.2-0.8-0.5-1.1C10.6,3,10.2,2.9,9.7,2.9C9.3,2.9,9,3,8.7,3.1z M11.3,6.7
	c0.2,0.8,0.6,1.6,1.2,2.4c0.4,0.5,0.8,0.9,1.4,1.3c-0.8,0.2-1.6,0.6-2.3,1.1l0,0l-0.1-0.1c0.7-0.5,1.4-0.9,2.2-1.1
	c-1-0.8-1.8-2-2.4-3.6l0-0.1c1.1-0.5,1.6-1.2,1.6-2.1c0-0.4-0.1-0.8-0.4-1.3c0.4,0.4,0.5,0.8,0.5,1.4C12.9,5.5,12.4,6.2,11.3,6.7z"
	/>
<path d="M13.9,2.6h2.5l-0.7,0.8v6.2l0.7,0.6h-2.5l0.7-0.7V3.3L13.9,2.6z M16.7,2.9l-0.5,0.6v6l0.9,1.1h-2.8l-0.1-0.2h2.6L16,9.6V3.4
	l0.6-0.7L16.7,2.9z"/>
<path d="M24.5,2.6l-0.7,0.8v6.1l0.7,0.7h-2.5l0.7-0.7v-4L21,10.7h-0.5l0-0.2h0.5L22.7,5V4.1l-2,6.1h-0.4l-1.5-4.8v3.1
	c0,0.4,0,0.7,0.1,0.9c0.1,0.2,0.2,0.4,0.4,0.6l0.5,0.7h-2.8l-0.1-0.2h2.6l-0.2-0.3h-2.4l0.1-0.1c0.4-0.2,0.7-0.5,0.8-0.7
	S18,8.7,18,8.2V3.3l-0.7-0.7H20l-0.8,0.8l1.5,5L21,7.8l-1.4-4.4l0.7-0.6l0.1,0.1l-0.7,0.5L21,7.6l1.4-4.2l-0.7-0.8H24.5z M18.4,4
	v4.3c0,0.7,0.1,1.1,0.2,1.3c0.1,0.2,0.3,0.4,0.7,0.5l0-0.1c-0.4-0.3-0.5-0.7-0.5-1.2V8.4V4.9L18.4,4z M24.8,3l-0.6,0.5v6l0.9,1.2
	h-2.9l-0.1-0.2h2.6L24,9.6V3.4l0.6-0.5L24.8,3z"/>
<path d="M31.1,2.6L31,2.7c-0.4,0.5-0.7,1.1-0.9,1.7c0-0.1-0.1-0.2-0.1-0.2c-0.2-0.5-0.4-0.8-0.6-0.9s-0.6-0.2-1.2-0.2
	c-0.3,0-0.6,0-1,0v2.7h0.3V3.4c0.3,0,0.5,0,0.8,0c0.5,0,0.8,0.1,1,0.2c0.2,0.1,0.4,0.3,0.6,0.6c-0.1,0-0.1-0.1-0.1-0.1
	c-0.3-0.3-0.5-0.4-0.6-0.5c-0.1,0-0.4-0.1-0.8-0.1c-0.1,0-0.3,0-0.6,0l-0.1,0v2.3h1l0.7-1v2.6l-0.7-1h-1.5v3.3h0.3v-3h1.2l0.1,0.2
	h-1.2v2.9c0.7,0,1.2-0.1,1.6-0.2c0.3-0.1,0.6-0.3,0.7-0.7l0.3-0.5c0,0,0-0.1,0.1-0.1c0.1,0.4,0.2,0.8,0.3,1c0.1,0.3,0.4,0.6,0.7,0.9
	h-6l0.8-0.7V6.8c-0.3,0-0.6,0.1-0.8,0.3l-0.1-0.1c0.2-0.2,0.5-0.3,0.9-0.3V6.3c-0.1,0-0.1,0-0.1,0c-0.4,0-0.7,0.1-1,0.4
	c0.2-0.6,0.5-0.9,1.1-0.9V3.3l-0.8-0.7H31.1z M32,10.1l-0.3,0.5h-5.9l-0.1-0.2h5.9l0.2-0.4C31.3,9.6,31,9,30.7,8.4l0.2,0.1
	C31.1,9,31.4,9.5,32,10.1L32,10.1z M29.8,5v2.6l-0.1-0.1V4.9L29.8,5z M31.4,3L31.4,3c-0.5,0.7-0.8,1.2-0.9,1.7l-0.1-0.1
	c0.2-0.6,0.5-1.2,0.9-1.7L31.4,3z"/>
</svg>
